<svg xmlns="http://www.w3.org/2000/svg" viewBox="0 0 1000 640" preserveAspectRatio="xMidYMid slice">
  <defs><linearGradient id="g" x1="0" y1="0" x2="0" y2="1">
    <stop offset="0" stop-color="#586a4f"/><stop offset="1" stop-color="#3f4a3a"/></linearGradient></defs>
  <rect width="1000" height="640" fill="url(#g)"/>
  <rect width="1000" height="640" fill="url(#g)" opacity="0.0"/>
  <g transform="translate(0,150)"><path d="M70,256 L172,256 Q250,150 328,256 L690,256 Q762,150 838,256 L905,256 Q968,250 958,205 Q950,150 858,150 L612,150 Q590,150 560,124 L470,86 Q380,52 300,86 L150,150 Q70,165 62,210 Z" fill="#000" opacity="0.22"/></g>
  <text x="40" y="70" font-family="monospace" font-size="26" fill="#ffffff" opacity="0.92" letter-spacing="3">BEFORE</text>
  <text x="40" y="560" font-family="sans-serif" font-size="34" fill="#ffffff" opacity="0.95">As acquired, 2013</text>
  <text x="40" y="596" font-family="sans-serif" font-size="20" fill="#ffffff" opacity="0.7">oxidized green, lower-body rust</text>
  <text x="960" y="610" text-anchor="end" font-family="monospace" font-size="14" fill="#ffffff" opacity="0.55">placeholder, photo pending</text>
</svg>